<?xml version="1.0" encoding="UTF-8" standalone="no"?>
<!-- Generator: Adobe Illustrator 27.7.0, SVG Export Plug-In . SVG Version: 6.00 Build 0)  -->

<svg
   version="1.1"
   id="Layer_1"
   x="0px"
   y="0px"
   viewBox="0 0 635.11207 97.080005"
   xml:space="preserve"
   width="635.11206"
   height="97.080002"
   xmlns="http://www.w3.org/2000/svg"
   xmlns:svg="http://www.w3.org/2000/svg"><defs
   id="defs33" />
<g
   id="g28"
   transform="translate(-61.06,-127.48)"
   style="fill:#ffffff;fill-opacity:1">
	<g
   id="g10"
   style="fill:#ffffff;fill-opacity:1">
		<path
   d="m 506.68,222.69 h 1.71 l 1.73,-3.87 h -2.68 c -3.79,-0.76 -6.24,-2.76 -7.64,-7.04 -1.4,-4.28 -2.1,-10.7 -2.1,-19.25 v -63.15 h -17.75 l -27.76,69.27 -32.78,-69.27 H 402.9 v 93.12 h 6.77 v -76.75 l 36.3,76.75 h 4.47 l 29.66,-73.93 v 43.96 c 0,10.62 2.12,18.34 6.37,23.14 3.73,4.2 8.41,7.1 20.21,7.02 z"
   id="path2"
   style="fill:#ffffff;fill-opacity:1" />
		<path
   d="m 171.77,128.84 h 17.62 v 75.01 c 0,4.23 0.56,7.64 1.69,10.23 1.13,2.58 3.73,3.87 7.8,3.87 h 11.49 v 4.24 h -26.41 c -2.35,0 -4.31,-0.29 -5.89,-0.85 -1.58,-0.57 -2.84,-1.55 -3.79,-2.96 -0.95,-1.41 -1.6,-3.29 -1.96,-5.64 -0.36,-2.35 -0.54,-5.31 -0.54,-8.88 v -75.02 z"
   id="path4"
   style="fill:#ffffff;fill-opacity:1" />
		<path
   d="m 348.82,224.56 c -4.98,0 -9.92,-0.37 -14.84,-1.11 -4.92,-0.75 -9.32,-1.84 -13.21,-3.29 -3.88,-1.44 -7.04,-3.21 -9.47,-5.3 -2.43,-2.1 -3.64,-4.45 -3.64,-7.06 v -16.34 h 5.46 c 1.93,9.68 5.82,16.57 11.67,20.67 5.85,4.1 13.85,6.14 23.98,6.14 6.87,0 12.39,-1.13 16.56,-3.42 4.16,-2.28 6.24,-5.66 6.24,-10.13 0,-4.01 -1.67,-7.34 -5.01,-9.99 -3.34,-2.65 -7.92,-5.33 -13.75,-8.03 l -22.4,-10.34 c -8.26,-3.72 -14.09,-7.54 -17.49,-11.45 -3.4,-3.91 -5.1,-8.42 -5.1,-13.55 0,-7.35 3.68,-13.17 11.02,-17.46 7.35,-4.28 17.28,-6.42 29.78,-6.42 4.98,0 12.95,0.37 17.87,1.11 4.92,0.74 9.31,1.84 13.2,3.29 3.89,1.44 7.04,3.21 9.47,5.3 2.43,2.1 3.65,4.45 3.65,7.06 v 16.34 h -5.46 c -2.05,-9.68 -5.91,-16.57 -11.58,-20.67 -5.67,-4.1 -16.1,-6.15 -25.27,-6.15 -6.52,0 -11.67,1.22 -15.47,3.64 -3.8,2.42 -5.7,5.73 -5.7,9.92 0,1.95 0.46,3.7 1.37,5.24 0.91,1.54 2.18,2.96 3.82,4.26 1.64,1.31 3.61,2.56 5.92,3.77 2.31,1.21 4.92,2.47 7.84,3.77 l 22.4,10.2 c 8.26,3.73 14.3,7.38 18.13,10.97 3.82,3.59 5.73,7.94 5.73,13.06 0,8.01 -3.95,14.34 -11.84,18.99 -7.89,4.65 -19.18,6.98 -33.88,6.98"
   id="path6"
   style="fill:#ffffff;fill-opacity:1" />
		<path
   d="m 535.33,190.16 h 32.05 l -15.6,-36.82 z m 57.9,14.25 c 1.69,4.14 3.76,7.43 6.21,9.87 2.45,2.45 5.27,3.86 7.05,4.24 v 3.53 c -0.52,0.29 -5.78,0.8 -12.62,0.07 -2.6,-0.28 -5.12,-1.26 -7.62,-2.53 -2.49,-1.27 -4.84,-3.1 -7.05,-5.5 -2.21,-2.41 -4.16,-5.62 -5.86,-9.67 l -3.26,-7.9 h -37.73 l -11.63,25.68 h -7.06 l 41.62,-93.12 h 6.35 z"
   id="path8"
   style="fill:#ffffff;fill-opacity:1" />
	</g>
	<polygon
   points="293.39,129.07 293.39,189.56 300.16,196.49 300.16,129.07 "
   id="polygon12"
   style="fill:#ffffff;fill-opacity:1" />
	<g
   id="g16"
   style="fill:#ffffff;fill-opacity:1">
		<path
   d="m 279.04,180.28 v 0 l -41.71,-42.74 c -2.45,-2.82 -5.56,-4.94 -9.33,-6.35 -3.77,-1.41 -8.69,-2.12 -14.75,-2.12 h -11.17 v 4.24 h 0.8 c 2.76,0 5.07,0.33 6.94,0.98 1.86,0.66 3.35,1.55 4.46,2.68 1.12,1.13 1.89,2.47 2.32,4.02 0.42,1.55 0.64,3.23 0.64,5.01 v 76.18 h 6.82 v -71.04 l 68.77,71.46 h 7.34 c 0,0 0.7,-13.66 -4.44,-22.61 -4.86,-8.46 -15.16,-18.16 -15.16,-18.16 z"
   id="path14"
   style="fill:#ffffff;fill-opacity:1" />
	</g>
	<polygon
   points="689.37,129.07 689.37,189.56 696.14,196.49 696.14,129.07 "
   id="polygon18"
   style="fill:#ffffff;fill-opacity:1" />
	<g
   id="g26"
   style="fill:#ffffff;fill-opacity:1">
		<path
   d="m 675.02,180.28 v 0 l -41.71,-42.74 c -2.45,-2.82 -5.56,-4.94 -9.33,-6.35 -3.77,-1.41 -8.69,-2.12 -14.75,-2.12 h -11.17 v 4.24 h 0.8 c 2.76,0 5.07,0.33 6.94,0.98 1.85,0.66 3.35,1.55 4.46,2.68 1.12,1.13 1.89,2.47 2.32,4.02 0.42,1.55 0.64,3.23 0.64,5.01 v 76.18 h 6.82 v -71.04 l 68.77,71.46 h 7.33 c 0,0 0.7,-13.66 -4.44,-22.61 -4.86,-8.46 -15.16,-18.16 -15.16,-18.16 z"
   id="path20"
   style="fill:#ffffff;fill-opacity:1" />
		<path
   d="m 160.42,215.25 c -1.98,-0.83 -4.02,-1.91 -6.15,-3.25 -2.13,-1.33 -4.31,-2.84 -6.53,-4.5 -2.23,-1.65 -4.31,-3.45 -6.23,-5.39 l -35.06,-33.18 22.61,-25.44 c 3.44,-3.87 7.49,-6.48 12.15,-7.82 4.65,-1.33 9.87,-2 23.73,-2 v -4.84 h -18.71 c -3.04,0 -5.82,0.39 -8.35,1.18 -2.53,0.79 -4.91,1.85 -7.14,3.18 -2.23,1.34 -4.27,2.88 -6.14,4.63 -1.87,1.76 -3.62,3.59 -5.24,5.53 L 93.1,173.08 v -26.27 c 0,-3.41 -0.23,-6.27 -0.69,-8.57 -0.45,-2.3 -1.21,-4.15 -2.28,-5.54 -1.06,-1.38 -2.48,-2.37 -4.25,-2.97 -1.77,-0.6 -3.97,-0.9 -6.6,-0.9 H 61.06 v 4.15 h 1.52 c 4.55,0 7.46,1.26 8.73,3.8 1.26,2.54 1.89,5.88 1.89,10.02 l 0.03,15.71 19.85,19.14 v 0 l 24.44,23.23 c 3.65,3.5 7.08,6.31 10.32,8.43 3.24,2.12 6.38,3.81 9.42,5.05 3.03,1.24 5.97,2.07 8.8,2.49 2.83,0.42 5.67,0.62 8.5,0.62 2.32,0 4.47,-0.14 6.45,-0.42 1.98,-0.27 3.52,-0.6 4.63,-0.96 v -3.32 c -1.51,-0.18 -3.25,-0.69 -5.22,-1.52"
   id="path22"
   style="fill:#ffffff;fill-opacity:1" />
		<path
   d="m 92.92,220.09 v -3.92 l -0.02,1.71 0.02,0.01 v -7.4 l -0.06,-0.03 0.05,-9.19 c 0,-15.82 -15.97,-29.67 -19.71,-33.15 v 45.96 6 h 19.72 z"
   id="path24"
   style="fill:#ffffff;fill-opacity:1" />
	</g>
</g>
</svg>
