<svg xmlns="http://www.w3.org/2000/svg" width="153" height="34" viewBox="0 0 153 34">
  <g id="Twitter" transform="translate(-967 -407)">
    <rect id="Rectangle_44" data-name="Rectangle 44" width="153" height="34" rx="6" transform="translate(967 407)" fill="#1bb3ea"/>
    <line id="Line_3" data-name="Line 3" y2="19.615" transform="translate(1002.806 414.192)" fill="none" stroke="#fff" stroke-width="0.5"/>
    <path id="Icon_awesome-twitter" data-name="Icon awesome-twitter" d="M14.5,6.652c.01.144.01.287.01.431a9.36,9.36,0,0,1-9.424,9.424A9.36,9.36,0,0,1,0,15.02a6.852,6.852,0,0,0,.8.041,6.634,6.634,0,0,0,4.112-1.415,3.318,3.318,0,0,1-3.1-2.3,4.177,4.177,0,0,0,.626.051,3.5,3.5,0,0,0,.872-.113A3.313,3.313,0,0,1,.656,8.036V8a3.336,3.336,0,0,0,1.5.42,3.317,3.317,0,0,1-1.025-4.43,9.415,9.415,0,0,0,6.83,3.466,3.739,3.739,0,0,1-.082-.759,3.315,3.315,0,0,1,5.732-2.266,6.521,6.521,0,0,0,2.1-.8,3.3,3.3,0,0,1-1.456,1.825,6.64,6.64,0,0,0,1.907-.513A7.12,7.12,0,0,1,14.5,6.652Z" transform="translate(977.606 414.056)" fill="#fff"/>
    <text id="Share_on_Twitter" data-name="Share on Twitter" transform="translate(1055 428)" fill="#fff" font-size="13" font-family="SegoeUI, Segoe UI" letter-spacing="-0.05em"><tspan x="-41.653" y="0">Share on Twitter</tspan></text>
  </g>
</svg>
